Coordinates
version=1
nRows=10
nColumns=23
inDegrees=yes

Units are S.I. units (second, meters, Newtons, ...)
If the header above contains a line with 'inDegrees', this indicates whether rotational values are in degrees (yes) or radians (no).

endheader
time	pelvis_tilt	pelvis_list	pelvis_rotation	pelvis_tx	pelvis_ty	pelvis_tz	hip_flexion_r	hip_adduction_r	hip_rotation_r	knee_angle_r	knee_angle_r_beta	ankle_angle_r	subtalar_angle_r	mtp_angle_r	hip_flexion_l	hip_adduction_l	hip_rotation_l	knee_angle_l	knee_angle_l_beta	ankle_angle_l	subtalar_angle_l	mtp_angle_l
     22.50000000	      0.73943763	     -5.03869863	     -8.31317129	      2.36079495	      0.93315896	      1.07934626	     -7.54641608	      7.07138042	      1.41350397	     30.21508422	      0.52735270	     18.56753555	      6.94333651	      0.00000000	     36.67369955	     -9.59819072	     -1.24937605	    117.44645322	      2.04982730	      1.62742773	    -11.40537133	      0.00000000
     22.50666667	      0.58402956	     -3.70932308	     -7.34520997	      2.36355920	      0.93691516	      1.07972421	    -10.43050044	      5.83405911	      1.22283001	     27.24127835	      0.47545000	     15.08790576	      5.93932547	      0.00000000	     38.57030017	     -7.66905658	     -1.07507797	    114.33563201	      1.99553323	      2.04550143	    -13.48556886	      0.00000000
     22.51333333	      0.13084296	     -2.22555298	     -6.41500049	      2.36653462	      0.94036945	      1.08001841	    -12.86005533	      4.44700469	      0.53202063	     24.44097475	      0.42657548	     11.24353799	      5.43298699	      0.00000000	     40.55147963	     -5.60612138	     -1.08906064	    110.96603024	      1.93672259	      2.28508345	    -15.62468459	      0.00000000
     22.52000000	     -0.59443083	     -0.74866359	     -5.51774312	      2.36971815	      0.94349636	      1.08030022	    -14.89222554	      3.12118807	     -0.46652374	     21.83579832	      0.38110658	      7.10899272	      5.01682689	      0.00000000	     42.59519596	     -3.60252827	     -1.17817797	    107.38381752	      1.87420118	      2.53027853	    -17.60318522	      0.00000000
     22.52666667	     -1.60299911	      0.67353329	     -4.61565052	      2.37291847	      0.94623681	      1.08046027	    -16.43600010	      1.89714687	     -1.79140721	     19.58696311	      0.34185700	      2.88300039	      4.80332114	      0.00000000	     44.73629351	     -1.66707001	     -1.26773199	    103.59943419	      1.80815123	      2.83269306	    -19.20053717	      0.00000000
     22.53333333	     -2.90141315	      1.95114438	     -3.78457146	      2.37601561	      0.94859799	      1.08054475	    -17.40734619	      0.81687045	     -3.32355832	     17.87498494	      0.31197734	     -1.26560283	      4.70446952	      0.00000000	     46.97252344	      0.03688451	     -1.38510771	     99.61395497	      1.73859150	      3.21266410	    -20.23248805	      0.00000000
     22.54000000	     -4.16064643	      3.03616983	     -2.97100948	      2.37897499	      0.95099350	      1.08049010	    -18.21800396	     -0.02160214	     -4.70317808	     16.58692372	      0.28949643	     -5.19810144	      4.52132337	      0.00000000	     48.92249620	      1.55922026	     -1.42100823	     95.38915848	      1.66485489	      3.51145690	    -21.16356404	      0.00000000
     22.54666667	     -5.60776387	      3.89719834	     -2.22986637	      2.38161635	      0.95305799	      1.08031630	    -18.43920442	     -0.69832808	     -6.16244997	     16.10329093	      0.28105545	     -8.67995810	      4.39890635	      0.00000000	     50.86436359	      2.80323128	     -1.40873705	     90.96769200	      1.58768574	      3.99691831	    -21.28692202	      0.00000000
     22.55333333	     -6.99875334	      4.52572761	     -1.53491801	      2.38404484	      0.95510311	      1.07991887	    -18.44579717	     -1.16828280	     -7.45109248	     16.20674691	      0.28286109	    -11.53656679	      4.30107722	      0.00000000	     52.49353313	      3.82482422	     -1.30444648	     86.30666097	      1.50633540	      4.49239971	    -21.12192962	      0.00000000
     22.56000000	     -8.31238532	      4.95515203	     -0.95658711	      2.38612085	      0.95706820	      1.07939160	    -18.17713377	     -1.50592945	     -8.48265717	     17.04560061	      0.29750185	    -13.70602292	      4.12204640	      0.00000000	     53.80588761	      4.58600701	     -1.19393070	     81.41060640	      1.42088313	      5.07617803	    -20.42129635	      0.00000000
